<?xml version="1.0" standalone="no"?>
<!DOCTYPE svg PUBLIC "-//W3C//DTD SVG 20010904//EN"
 "http://www.w3.org/TR/2001/REC-SVG-20010904/DTD/svg10.dtd">
<svg version="1.0" xmlns="http://www.w3.org/2000/svg"
 width="700.000000pt" height="700.000000pt" viewBox="0 0 700.000000 700.000000"
 preserveAspectRatio="xMidYMid meet">
<metadata>
Created by potrace 1.14, written by Peter Selinger 2001-2017
</metadata>
<g transform="translate(0.000000,700.000000) scale(0.100000,-0.100000)"
fill="#000000" stroke="none">
<path d="M4840 6610 c-34 -10 -89 -38 -238 -124 -70 -40 -154 -88 -187 -106
-64 -36 -477 -269 -535 -302 -19 -12 -55 -32 -80 -46 -25 -14 -90 -51 -145
-82 -55 -31 -120 -68 -145 -82 -25 -14 -102 -57 -171 -96 l-126 -72 -99 34
c-54 19 -171 60 -259 91 -88 31 -180 64 -205 72 -25 8 -54 18 -65 23 -11 5
-59 22 -107 39 -101 35 -193 68 -398 141 -337 120 -548 193 -592 205 -127 34
-264 -28 -325 -148 -39 -78 -40 -132 -5 -303 17 -82 33 -160 36 -174 4 -24
108 -524 141 -685 10 -44 19 -91 22 -105 2 -14 15 -77 28 -140 13 -63 26 -127
29 -143 3 -15 7 -35 10 -45 3 -9 7 -28 10 -42 2 -14 17 -87 32 -163 25 -123
26 -141 13 -161 -12 -20 -710 -923 -858 -1112 -31 -39 -67 -86 -81 -104 -14
-18 -54 -69 -88 -114 -35 -45 -70 -92 -77 -106 -48 -92 -43 -206 12 -291 55
-86 138 -133 255 -143 24 -2 70 -7 103 -11 33 -4 74 -9 90 -10 85 -9 153 -16
181 -20 16 -2 59 -7 95 -10 35 -4 75 -8 89 -11 14 -2 57 -6 95 -10 39 -3 79
-8 90 -10 10 -2 49 -6 85 -10 36 -3 76 -7 90 -9 27 -5 179 -22 270 -31 30 -3
66 -7 80 -9 14 -3 57 -7 95 -10 39 -3 81 -8 95 -11 14 -2 45 -6 70 -9 96 -9
156 -16 175 -20 11 -2 25 -4 31 -4 6 -1 40 -45 76 -99 37 -53 98 -143 137
-199 176 -254 217 -314 277 -403 85 -125 201 -292 211 -305 4 -6 32 -46 62
-90 170 -251 279 -403 306 -428 112 -103 278 -100 390 6 51 49 62 69 208 392
184 404 195 429 237 520 18 39 34 75 36 80 1 6 21 51 44 100 96 205 130 277
130 281 0 2 19 45 43 96 24 51 58 128 77 170 l34 76 71 21 c38 11 246 72 460
135 215 62 417 122 450 132 33 9 65 19 70 20 6 2 33 10 60 18 28 8 88 26 135
39 479 139 523 154 568 187 77 55 123 152 116 245 -8 120 -23 142 -214 315
-58 52 -107 97 -110 100 -3 3 -59 54 -125 114 -66 60 -143 130 -170 155 -28
25 -90 82 -139 126 -49 44 -108 98 -131 120 -24 22 -72 65 -106 97 -35 31 -76
67 -90 80 -14 12 -73 66 -130 118 -152 138 -212 198 -206 207 3 4 8 116 11
248 4 132 9 310 11 395 3 85 7 229 10 320 25 866 25 862 -1 921 -49 107 -142
171 -254 175 -36 1 -76 -2 -90 -6z m-235 -947 c-3 -87 -7 -237 -10 -333 -2
-96 -7 -281 -11 -410 -4 -129 -8 -314 -8 -410 -1 -237 -2 -235 209 -427 50
-45 99 -90 111 -100 12 -10 63 -56 114 -103 51 -47 101 -92 110 -100 38 -34
185 -167 214 -195 17 -16 76 -70 131 -120 55 -49 118 -107 140 -127 22 -20 53
-46 68 -58 16 -13 25 -26 20 -30 -7 -7 -115 -41 -353 -110 -36 -11 -189 -56
-340 -100 -151 -45 -282 -83 -290 -85 -8 -2 -78 -22 -155 -45 -77 -23 -161
-48 -187 -55 -26 -7 -62 -22 -80 -33 -72 -45 -96 -84 -223 -362 -141 -309
-148 -324 -199 -433 -20 -43 -36 -80 -36 -82 0 -2 -18 -41 -39 -85 -22 -44
-40 -82 -40 -83 0 -2 -27 -64 -78 -177 -12 -25 -35 -75 -51 -112 -17 -38 -33
-68 -36 -68 -2 0 -38 48 -78 108 -41 59 -101 145 -133 192 -32 47 -81 119
-110 160 -148 215 -197 287 -282 410 -50 74 -95 140 -100 145 -4 6 -33 46 -63
90 -30 44 -64 88 -75 98 -29 26 -120 68 -158 72 -17 3 -95 11 -172 20 -135 15
-163 18 -250 29 -22 3 -69 8 -105 11 -36 3 -76 8 -90 10 -14 2 -54 7 -90 10
-36 3 -76 8 -90 10 -14 2 -54 7 -90 11 -36 3 -72 7 -80 9 -8 2 -49 6 -90 9
-41 4 -86 9 -100 11 -14 3 -52 7 -85 10 -33 3 -69 8 -80 10 -11 2 -33 4 -49 4
-19 1 -27 5 -23 14 4 12 133 181 371 487 528 680 536 692 536 786 0 29 -29
180 -95 499 -9 44 -18 87 -20 95 -2 8 -15 74 -30 145 -15 72 -29 141 -32 155
-2 14 -15 77 -28 140 -13 63 -26 126 -29 140 -6 30 -21 103 -40 190 -8 36 -12
67 -11 69 4 3 118 -35 335 -113 966 -344 1031 -366 1088 -366 70 0 111 17 295
121 89 51 187 106 217 122 30 16 60 33 65 37 6 4 30 19 55 32 25 14 113 63
195 110 83 47 168 96 190 108 42 23 296 167 330 186 11 7 21 12 23 13 1 1 0
-70 -3 -156z"/>
<path d="M5215 2025 c-27 -6 -63 -19 -80 -27 -96 -52 -159 -170 -149 -283 10
-108 10 -108 668 -762 459 -456 628 -617 663 -634 38 -19 64 -24 128 -24 71 0
86 4 135 31 128 72 181 213 134 359 -15 46 -63 97 -633 667 -534 536 -624 622
-676 647 -71 35 -122 42 -190 26z"/>
</g>
</svg>
